<svg width="952" height="396" viewBox="0 0 952 396" fill="none" xmlns="http://www.w3.org/2000/svg">
<g opacity="0.35">
    <rect x="413" y="157" width="8" height="8" fill="gray" stroke="red" transform="rotate(15 417 161)" />
    <rect opacity="0.5" x="513" y="114" width="4" height="4" fill="gray" stroke="red" transform="rotate(-20 515 116)" />
    <rect opacity="0.5" x="419" y="275" width="8" height="8" fill="gray" stroke="red" transform="rotate(30 423 279)" />
    <rect opacity="0.3" x="364" y="392" width="4" height="4" fill="gray" stroke="red" transform="rotate(-10 366 394)" />
    <rect x="263" y="325" width="4" height="4" fill="gray" stroke="red" transform="rotate(45 265 327)" />
    <rect opacity="0.2" x="360" y="207" width="4" height="4" fill="gray" stroke="red" transform="rotate(60 362 209)" />
    <rect opacity="0.3" x="546" y="209" width="4" height="4" fill="gray" stroke="red" transform="rotate(-35 548 211)" />
    <rect opacity="0.2" x="605" y="279" width="4" height="4" fill="gray" stroke="red" transform="rotate(20 607 281)" />
    <rect opacity="0.21" x="787" y="279" width="4" height="4" fill="gray" stroke="red" transform="rotate(75 789 281)" />
    <rect x="360" y="63" width="4" height="4" fill="gray" stroke="red" transform="rotate(-45 362 65)" />
    <rect opacity="0.3" x="190" y="130" width="4" height="4" fill="gray" stroke="red" transform="rotate(25 192 132)" />
    <rect x="741" y="0" width="4" height="4" fill="gray" stroke="red" transform="rotate(-30 743 2)" />
  </g>
<path d="M834 150C827.373 150 822 144.627 822 138C822 131.373 827.373 126 834 126C840.627 126 846 131.373 846 138C846 144.627 840.627 150 834 150Z" fill="url(#paint0_linear_701_17365)"/>
<path d="M4 206C1.79086 206 4.76837e-07 204.209 4.76837e-07 202C4.76837e-07 199.791 1.79086 198 4 198C6.20914 198 8 199.791 8 202C8 204.209 6.20914 206 4 206Z" fill="url(#paint1_linear_701_17365)"/>
<path d="M948 206C945.791 206 944 204.209 944 202C944 199.791 945.791 198 948 198C950.209 198 952 199.791 952 202C952 204.209 950.209 206 948 206Z" fill="url(#paint2_linear_701_17365)"/>
<path d="M154 326C149.582 326 146 322.418 146 318C146 313.582 149.582 310 154 310C158.418 310 162 313.582 162 318C162 322.418 158.418 326 154 326Z" fill="url(#paint3_linear_701_17365)"/>
<defs>
<linearGradient id="paint0_linear_701_17365" x1="834" y1="126" x2="834" y2="150" gradientUnits="userSpaceOnUse">
<stop stop-color="#808080"/>
<stop offset="1" />
</linearGradient>
<linearGradient id="paint1_linear_701_17365" x1="4" y1="198" x2="4" y2="206" gradientUnits="userSpaceOnUse">
<stop stop-color="#808080"/>
<stop offset="1" />
</linearGradient>
<linearGradient id="paint2_linear_701_17365" x1="948" y1="198" x2="948" y2="206" gradientUnits="userSpaceOnUse">
<stop stop-color="#808080"/>
<stop offset="1" />
</linearGradient>
<linearGradient id="paint3_linear_701_17365" x1="154" y1="310" x2="154" y2="326" gradientUnits="userSpaceOnUse">
<stop stop-color="#808080"/>
<stop offset="1" />
</linearGradient>
</defs>
</svg>

