<svg xmlns="http://www.w3.org/2000/svg" xmlns:xlink="http://www.w3.org/1999/xlink" fill="#fff" x="0px" y="0px" viewBox="0 0 60 60" width="60" height="60" style="enable-background:new 0 0 60 60;" xml:space="preserve"><g>	<defs>		<rect width="60" height="60"></rect>	</defs>	<clipPath>		<use xlink:href="/#SVGID_1_" style="overflow:visible;"></use>	</clipPath>			<path class="st0" d="M60,23v-4.7h-4.2v-2.3c0-3.9-3.2-7-7-7h-2.3V0h-4.7v8.9h-9.4V4.2h-4.7v4.7h-9.4V0h-4.7v8.9h-2.3  c-3.9,0-7,3.2-7,7v2.3H0V23h4.2V37H0v4.7h4.2v2.3c0,3.9,3.2,7,7,7h2.3V60h4.7v-8.9h9.4v4.7h4.7v-4.7h9.4V60h4.7v-8.9h2.3  c3.9,0,7-3.2,7-7v-2.3H60V37h-4.2V23H60z M51.1,44.1c0,1.3-1.1,2.3-2.3,2.3H11.3c-1.3,0-2.3-1.1-2.3-2.3V15.9  c0-1.3,1.1-2.3,2.3-2.3h37.5c1.3,0,2.3,1.1,2.3,2.3V44.1z"></path>				<path class="st1" d="M19,23.7L12.6,30l6.3,6.3l3.3-3.3l-3-3l3-3L19,23.7z"></path>				<path class="st2" d="M27.7,23h4.7V37h-4.7V23z"></path>	<path class="st3" d="M37.7,27l3,3l-3,3l3.3,3.3l6.3-6.3L41,23.7L37.7,27z"></path></g></svg>